<svg xmlns="http://www.w3.org/2000/svg" width="205" height="44.4"><path fill="#3c5256" d="M186.8 30.4c1.5 0 3.2-.3 4.6-1.1l.5-.3v4.3c-1.9.6-3.5.7-5.4.7-2.4 0-5-.6-6.9-2.3-1.9-1.7-2.6-4.1-2.6-6.6.1-2.1.6-4.4 1.9-6.1 1.5-1.9 3.7-3 6.2-3 3.1 0 5.6 1.5 6.9 4.4.9 2.1.9 4.2.9 6.3h-11.3c.3 2.6 2.8 3.7 5.2 3.7zm-5.3-7.3h7c-.2-2.2-1.3-3.5-3.4-3.6-2.1.1-3.4 1.6-3.6 3.6zm-7.1-2.3c-1.1-.9-3-1.2-4.5-1.2-1.6 0-2.7.6-3.3 1.5-.7 1-1 2.4-1 3.9 0 1.2.2 2.2.7 3.1.7 1.3 1.8 2.1 3.5 2.1 1.6 0 3.4-.3 4.7-1l.5-.3v3.9c-1.7.9-3.5 1.2-5.2 1.2-2.8 0-5.4-1.4-6.9-3.6-1.1-1.5-1.6-3.3-1.6-5.4 0-2.5.8-4.8 2.2-6.4 1.5-1.6 3.6-2.6 6.2-2.6 1.9 0 3.5.4 5.3 1.2v4.1l-.6-.5zm-16 1.6v11.2h-4.2V22.8c0-1.6-.8-3-2.6-3-1.4 0-3.1.6-4.3 1.4v12.4h-4.2V16.3h4.1v1.1c1.6-.8 3.3-1.5 5-1.5 3.7 0 6.2 2.6 6.2 6.5zm-24.7 8c1.5 0 3.2-.3 4.6-1.1l.5-.3v4.3c-1.9.6-3.5.7-5.4.7-2.4 0-5-.6-6.9-2.3-1.9-1.7-2.6-4.1-2.6-6.6.1-2.1.6-4.4 1.9-6.1 1.5-1.9 3.7-3 6.2-3 3.1 0 5.6 1.5 6.9 4.4.9 2.1.9 4.2.9 6.3h-11.3c.3 2.6 2.8 3.7 5.2 3.7zm-5.3-7.3h7c-.2-2.2-1.3-3.5-3.4-3.6-2.1.1-3.4 1.6-3.6 3.6zm-5.7-3.2s-3.9-.4-5.5 1.8v11.9H113V16.3h4.1v1.1c1.7-.9 3.6-1.5 5.6-1.5v4zm-19.4 10.5c1.5 0 3.2-.3 4.6-1.1l.5-.3v4.3c-1.9.6-3.5.7-5.4.7-2.4 0-5-.6-6.9-2.3-1.9-1.7-2.6-4.1-2.6-6.6.1-2.1.6-4.4 1.9-6.1 1.5-1.9 3.7-3 6.2-3 3.1 0 5.6 1.5 6.9 4.4.9 2.1.9 4.2.9 6.3H98c.4 2.6 2.9 3.7 5.3 3.7zM98 23.1h7c-.2-2.2-1.3-3.5-3.4-3.6-2.1.1-3.4 1.6-3.6 3.6zm-9.1-6.8h4L87.2 32c-.5 1.2-1.4 1.8-2.6 1.9-1.3 0-2.3-.7-2.8-1.8l-5.6-15.8h4.5l4.1 12.2 4.1-12.2zm-14.7-5.8H62.5c-1.8 0-3.2 1.5-3.2 3.2v19.8h14.9v-4H63.7v-6.2h10.4v-3.9H63.7v-4c0-.5.4-1 1-1h9.4v-3.9z"/><path fill="#B9CD2B" d="m6.3 22.2 1-1c2.6-2.4 4.6-1.4 6 0l1.1 1.1 2.4-2.4-1.1-1.1c-3.3-3.3-7.6-4.6-12.5.2l3.1 3.2z"/><path fill="#71A232" d="M9.1 30.5c-4.6 0-8.7 2.1-8.7 9V44H5c6.9 0 9-4 9-8.7v-4.9H9.1zm1.5 4.8c0 1.9-.7 4.1-4.3 4.2H4.9V38c.2-3.6 2.3-4.3 4.2-4.3h1.5v1.6z"/><path fill="#B9CD2B" d="M41.2 19c-4.8-4.8-9.2-3.5-12.5-.2l-3.5 3.5-3 3-3-3-2.4 2.4 3 3-1.1 1.1c-3.3 3.3-4.6 7.6.2 12.5l3.2 3.2 3.2-3.2c4.8-4.8 3.5-9.2.2-12.5l-1.1-1.1 3-3 3.4-3.4c1.4-1.4 3.4-2.4 6 0l4.2 4.2 3.2-3.2-3-3.3zM23.3 37l-1 1-1-1c-2.4-2.6-1.4-4.6 0-6l1.1-1.1 1.1 1.1c1.1 1.4 2.1 3.4-.2 6z"/><path fill="#71A232" d="M44 39.4c0-6.9-4-9-8.7-9h-4.9v4.9c0 4.6 2.1 8.7 9 8.7H44v-4.6zm-5.9.1c-3.6-.2-4.3-2.3-4.3-4.2v-1.5h1.5c1.9 0 4.1.7 4.2 4.3v1.5h-1.4zM37 23.3c-2.6 2.4-4.6 1.4-6 0l-1-1.1-2.4 2.4 1.1 1.1c3.3 3.3 7.6 4.6 12.5-.2l.1-.1-3.2-3.2-1.1 1.1z"/><path fill="#B9CD2B" d="M44 .4h-4.6c-6.9 0-9 4-9 8.7V14h4.9c4.6 0 8.7-2.1 8.7-9V.4zm-4.5 5.9c-.2 3.6-2.3 4.3-4.2 4.3h-1.5V9.1c0-1.9.7-4.1 4.3-4.2h1.5v1.4z"/><path fill="#71A232" d="M25.7 15.7c3.3-3.3 4.6-7.6-.2-12.5L22.2 0 19 3.2c-4.8 4.8-3.5 9.2-.2 12.5l1.1 1.1-6.5 6.5c-1.4 1.4-3.4 2.4-6 0L3.2 19 0 22.2l3.2 3.2c4.8 4.8 9.2 3.5 12.5.2l6.5-6.5 3 3 2.4-2.4-3-3 1.1-1zm-4.6-2.3c-1.4-1.4-2.4-3.4 0-6l1-1 1 1c2.4 2.6 1.4 4.6 0 6L22 14.5l-.9-1.1z"/><path fill="#B9CD2B" d="M5 .4H.4V5c0 6.9 4 9 8.7 9H14V9.1C13.9 4.4 11.8.4 5 .4zm4.1 10.2c-1.9 0-4.1-.7-4.2-4.3V4.9h1.5c3.6.2 4.3 2.3 4.3 4.2v1.5H9.1z"/><path fill="#3c5256" d="M201.3 16.2c2 0 3.7 1.6 3.7 3.7 0 2-1.6 3.7-3.7 3.7-2 0-3.7-1.6-3.7-3.7s1.7-3.7 3.7-3.7zm0 6.8c1.7 0 3-1.4 3-3.1 0-1.8-1.3-3.1-3-3.1s-3 1.4-3 3.1c.1 1.7 1.3 3.1 3 3.1zm-1.4-5.3h1.6c1 0 1.5.4 1.5 1.2 0 .7-.4 1.2-1.1 1.2l1.2 1.9h-.7l-1.2-1.9h-.6V22h-.7v-4.3zm.7 1.8h.8c.5 0 .9-.1.9-.7 0-.5-.4-.6-.9-.6h-.8v1.3z"/></svg>
